<?xml version="1.0" encoding="UTF-8"?>
<svg width="274px" height="62px" viewBox="0 0 274 62" version="1.1" xmlns="http://www.w3.org/2000/svg" xmlns:xlink="http://www.w3.org/1999/xlink">
    <title>Slate-Logo</title>
    <defs>
        <polygon id="path-1" points="0 0 274 0 274 45.3581081 0 45.3581081"></polygon>
    </defs>
    <g id="Page-1" stroke="none" stroke-width="1" fill="none" fill-rule="evenodd">
        <g id="Slate-Desktop-34" transform="translate(-56.000000, -35.000000)">
            <g id="Slate-Logo" transform="translate(56.000000, 35.000000)">
                <g id="Strapline" transform="translate(22.216216, 53.689189)" fill="#020404">
                    <path d="M0.783236125,0.8693302 L0.783236125,6.53619218 L2.40864944,6.53619218 C4.16299635,6.53619218 5.28287666,5.3085378 5.28287666,3.72323184 L5.28287666,3.70246875 C5.28287666,2.11745524 4.16299635,0.8693302 2.40864944,0.8693302 L0.783236125,0.8693302 Z M0,0.122736194 L2.40864944,0.122736194 C4.58918562,0.122736194 6.09558332,1.66710084 6.09558332,3.6819981 L6.09558332,3.70246875 C6.09558332,5.71765845 4.58918562,7.28278619 2.40864944,7.28278619 L0,7.28278619 L0,0.122736194 Z" id="Fill-4"></path>
                    <polygon id="Fill-6" points="12.3781628 7.28290316 13.1611156 7.28290316 13.1611156 0.122853169 12.3781628 0.122853169"></polygon>
                    <path d="M19.4440635,3.72331958 L19.4440635,3.70255648 C19.4440635,1.73854342 20.8416469,0 22.92272,0 C24.0921902,0 24.8156351,0.348001123 25.5096095,0.951300548 L25.0040765,1.56512774 C24.469073,1.08406736 23.8742783,0.746594005 22.8929661,0.746594005 C21.3568145,0.746594005 20.2564868,2.08654455 20.2564868,3.68208583 L20.2564868,3.70255648 C20.2564868,5.41068636 21.3171427,6.67928205 23.0020638,6.67928205 C23.7949345,6.67928205 24.5285808,6.36227935 25.0040765,5.96310159 L25.0040765,4.18361686 L22.8929661,4.18361686 L22.8929661,3.45749351 L25.7572754,3.45749351 L25.7572754,6.31110272 C25.1131742,6.90387438 24.1420634,7.40540541 22.9723099,7.40540541 C20.7920571,7.40540541 19.4440635,5.76863038 19.4440635,3.72331958" id="Fill-8"></path>
                    <polygon id="Fill-9" points="32.1489242 7.28290316 32.931877 7.28290316 32.931877 0.122853169 32.1489242 0.122853169"></polygon>
                    <polygon id="Fill-10" points="41.3554625 0.8693302 39.0264402 0.8693302 39.0264402 0.122736194 44.4776389 0.122736194 44.4776389 0.8693302 42.1483332 0.8693302 42.1483332 7.28278619 41.3554625 7.28278619"></polygon>
                    <path d="M54.1102814,4.65382779 L52.534458,1.01239083 L50.9487165,4.65382779 L54.1102814,4.65382779 Z M52.1776945,0.0716180462 L52.9110574,0.0716180462 L56.0726223,7.28255224 L55.2304451,7.28255224 L54.4174551,5.3904789 L50.6415429,5.3904789 L49.8189182,7.28255224 L49.0161295,7.28255224 L52.1776945,0.0716180462 Z" id="Fill-11"></path>
                    <polygon id="Fill-12" points="61.9984667 0.122736194 62.7817028 0.122736194 62.7817028 6.53619218 66.6865486 6.53619218 66.6865486 7.28278619 61.9984667 7.28278619"></polygon>
                    <path d="M84.7228273,4.65382779 L83.1470039,1.01239083 L81.5612624,4.65382779 L84.7228273,4.65382779 Z M82.7902404,0.0716180462 L83.5238867,0.0716180462 L86.6851682,7.28255224 L85.842991,7.28255224 L85.030001,5.3904789 L81.2540888,5.3904789 L80.4314642,7.28255224 L79.6286755,7.28255224 L82.7902404,0.0716180462 Z" id="Fill-13"></path>
                    <path d="M92.0164162,6.23936769 L92.5021133,5.64601116 C93.2255582,6.32095787 93.9192493,6.65843123 94.8807255,6.65843123 C95.8124477,6.65843123 96.4270784,6.14754219 96.4270784,5.44159705 L96.4270784,5.4211264 C96.4270784,4.75612257 96.0799495,4.37800034 94.6231417,4.0607052 C93.0274823,3.70246875 92.2941193,3.17052418 92.2941193,1.99463131 L92.2941193,1.97416066 C92.2941193,0.848859545 93.2553122,0.0203829229 94.5735518,0.0203829229 C95.5846178,0.0203829229 96.3080628,0.31720741 97.0116718,0.900036181 L96.5557286,1.52380626 C95.9116274,0.982211236 95.2675262,0.746506274 94.5537159,0.746506274 C93.6517475,0.746506274 93.0770721,1.25798019 93.0770721,1.90251337 L93.0770721,1.92298402 C93.0770721,2.59793073 93.4338356,2.9763454 94.9600692,3.31381876 C96.5061388,3.66181988 97.2196658,4.24464865 97.2196658,5.33924378 L97.2196658,5.35971444 C97.2196658,6.58678394 96.228719,7.38513946 94.8509716,7.38513946 C93.7509272,7.38513946 92.8489588,7.00643235 92.0164162,6.23936769" id="Fill-14"></path>
                    <path d="M102.818699,6.23936769 L103.304396,5.64601116 C104.027841,6.32095787 104.721532,6.65843123 105.683008,6.65843123 C106.61473,6.65843123 107.229361,6.14754219 107.229361,5.44159705 L107.229361,5.4211264 C107.229361,4.75612257 106.882232,4.37800034 105.425424,4.0607052 C103.829765,3.70246875 103.096402,3.17052418 103.096402,1.99463131 L103.096402,1.97416066 C103.096402,0.848859545 104.057595,0.0203829229 105.375835,0.0203829229 C106.386901,0.0203829229 107.110345,0.31720741 107.813954,0.900036181 L107.358011,1.52380626 C106.71391,0.982211236 106.069809,0.746506274 105.355999,0.746506274 C104.45403,0.746506274 103.879355,1.25798019 103.879355,1.90251337 L103.879355,1.92298402 C103.879355,2.59793073 104.236118,2.9763454 105.762352,3.31381876 C107.308421,3.66181988 108.021948,4.24464865 108.021948,5.33924378 L108.021948,5.35971444 C108.021948,6.58678394 107.031002,7.38513946 105.653254,7.38513946 C104.55321,7.38513946 103.651242,7.00643235 102.818699,6.23936769" id="Fill-15"></path>
                    <polygon id="Fill-16" points="114.175821 0.122736194 119.190913 0.122736194 119.190913 0.859387311 114.959057 0.859387311 114.959057 3.30387587 118.744887 3.30387587 118.744887 4.03994211 114.959057 4.03994211 114.959057 6.54613507 119.240502 6.54613507 119.240502 7.28278619 114.175821 7.28278619"></polygon>
                    <polygon id="Fill-17" points="127.207861 0.8693302 124.878556 0.8693302 124.878556 0.122736194 130.329754 0.122736194 130.329754 0.8693302 128.000732 0.8693302 128.000732 7.28278619 127.207861 7.28278619"></polygon>
                    <path d="M146.384423,4.01961767 C147.534057,4.01961767 148.287256,3.38531983 148.287256,2.44454705 L148.287256,2.42407639 C148.287256,1.40112855 147.544259,0.869476419 146.423812,0.869476419 L144.669748,0.869476419 L144.669748,4.01961767 L146.384423,4.01961767 Z M143.886795,0.122882413 L146.483603,0.122882413 C148.049508,0.122882413 149.080127,0.982065017 149.080127,2.39337041 L149.080127,2.4141335 C149.080127,3.95849815 147.831313,4.75626879 146.354669,4.75626879 L144.669748,4.75626879 L144.669748,7.28263997 L143.886795,7.28263997 L143.886795,0.122882413 Z" id="Fill-18"></path>
                    <polygon id="Fill-19" points="155.065621 0.122736194 155.848857 0.122736194 155.848857 6.53619218 159.753703 6.53619218 159.753703 7.28278619 155.065621 7.28278619"></polygon>
                    <path d="M170.258475,4.65382779 L168.682651,1.01239083 L167.096626,4.65382779 L170.258475,4.65382779 Z M168.325604,0.0716180462 L169.059251,0.0716180462 L172.220816,7.28255224 L171.378355,7.28255224 L170.565648,5.3904789 L166.789453,5.3904789 L165.966545,7.28255224 L165.164323,7.28255224 L168.325604,0.0716180462 Z" id="Fill-20"></path>
                    <polygon id="Fill-21" points="179.088045 0.8693302 176.758739 0.8693302 176.758739 0.122736194 182.209938 0.122736194 182.209938 0.8693302 179.880916 0.8693302 179.880916 7.28278619 179.088045 7.28278619"></polygon>
                    <polygon id="Fill-22" points="188.234991 0.122736194 193.220328 0.122736194 193.220328 0.8693302 189.018227 0.8693302 189.018227 3.4266998 192.774303 3.4266998 192.774303 4.16276604 189.018227 4.16276604 189.018227 7.28278619 188.234991 7.28278619"></polygon>
                    <path d="M205.102933,3.72331958 L205.102933,3.70255648 C205.102933,2.07630922 203.953298,0.746594005 202.367274,0.746594005 C200.781816,0.746594005 199.651734,2.05583857 199.651734,3.68208583 L199.651734,3.70255648 C199.651734,5.32880375 200.801368,6.65851896 202.38711,6.65851896 C203.973134,6.65851896 205.102933,5.3492744 205.102933,3.72331958 M198.838744,3.72331958 L198.838744,3.70255648 C198.838744,1.72860054 200.275999,0 202.38711,0 C204.497937,0 205.915356,1.70842232 205.915356,3.68208583 L205.915356,3.70255648 C205.915356,5.67680487 204.478384,7.40540541 202.367274,7.40540541 C200.256163,7.40540541 198.838744,5.69727552 198.838744,3.72331958" id="Fill-23"></path>
                    <path d="M215.042267,3.7740868 C216.083087,3.7740868 216.826368,3.22196401 216.826368,2.30136944 L216.826368,2.28089879 C216.826368,1.40124553 216.172065,0.869300956 215.052468,0.869300956 L212.911604,0.869300956 L212.911604,3.7740868 L215.042267,3.7740868 Z M212.128368,0.122706951 L215.111693,0.122706951 C215.964071,0.122706951 216.648128,0.388533018 217.083952,0.838887412 C217.421163,1.18630366 217.619522,1.68783469 217.619522,2.25019281 L217.619522,2.27066346 C217.619522,3.45737653 216.826368,4.1527939 215.736242,4.35720801 L217.866904,7.28275694 L216.905712,7.28275694 L214.893781,4.50079503 L212.911604,4.50079503 L212.911604,7.28275694 L212.128368,7.28275694 L212.128368,0.122706951 Z" id="Fill-24"></path>
                    <polygon id="Fill-25" points="223.852455 0.122736194 224.645326 0.122736194 227.172707 4.02999922 229.700089 0.122736194 230.493243 0.122736194 230.493243 7.28278619 229.710007 7.28278619 229.710007 1.48315739 227.182625 5.31877313 227.142954 5.31877313 224.615855 1.49368516 224.615855 7.28278619 223.852455 7.28278619"></polygon>
                </g>
                <g id="Logo">
                    <mask id="mask-2" fill="white">
                        <use xlink:href="#path-1"></use>
                    </mask>
                    <g id="Clip-2"></g>
                    <path d="M251.559786,33.2279963 L236.358968,33.2279963 L236.358968,12.8595547 L251.41452,12.8595547 L251.41452,16.0602408 L239.927469,16.0602408 L239.927469,21.3555186 L250.109675,21.3555186 L250.109675,24.5567729 L239.927469,24.5567729 L239.927469,30.0273101 L251.559786,30.0273101 L251.559786,33.2279963 Z M198.3548,16.1764176 L191.915244,16.1764176 L191.915244,33.2279963 L188.319559,33.2279963 L188.319559,16.1764176 L181.878587,16.1764176 L181.878587,12.8598387 L198.3548,12.8598387 L198.3548,16.1764176 Z M144.453784,33.2277122 L142.394293,28.3102221 L142.319819,28.3102221 L140.9994,25.1390773 L141.088598,25.1390773 L137.578147,16.9913598 L134.462434,24.284368 L134.407216,24.2837999 L132.346026,29.1998697 L132.415685,29.1978814 L130.703926,33.2277122 L127.049058,33.2277122 L135.98362,12.7138365 L139.290473,12.7138365 L148.223618,33.2277122 L144.453784,33.2277122 Z M90.8455646,33.2282803 L76.6010099,33.2282803 L76.6010099,12.8598387 L80.1703605,12.8598387 L80.1703605,29.9690797 L90.8455646,29.9690797 L90.8455646,33.2282803 Z M38.1618935,27.4376176 C38.1618935,31.2487292 35.1747393,33.5188644 30.910491,33.5188644 C27.8066709,33.5188644 24.8761506,32.4417432 22.440044,30.2599479 L24.5867514,27.6992285 C26.5312759,29.3862071 28.5024182,30.3471515 30.997424,30.3471515 C33.2013316,30.3471515 34.5939588,29.2995716 34.5939588,27.7867162 L34.5939588,27.7290539 C34.5939588,26.2735768 33.7821121,25.4878919 30.0114281,24.6147193 C25.6882805,23.5682756 23.2527403,22.2872058 23.2527403,18.5329043 L23.2527403,18.475242 C23.2527403,14.9836877 26.1532447,12.5686865 30.1861436,12.5686865 C33.1432819,12.5686865 35.4930217,13.4705483 37.5533625,15.1291218 L35.638854,17.8352752 C33.8115617,16.4678539 31.9839863,15.7403994 30.1278107,15.7403994 C28.0380204,15.7403994 26.820675,16.8161004 26.820675,18.1554006 L26.820675,18.213063 C26.820675,19.7850009 27.7486212,20.4829141 31.6634385,21.4143172 C35.9571364,22.4616131 38.1618935,24.0042938 38.1618935,27.3793872 L38.1618935,27.4376176 Z M0,45.3581081 L274.000113,45.3581081 L274.000113,0 L0,0 L0,45.3581081 Z" id="Fill-1" fill="#020404" mask="url(#mask-2)"></path>
                </g>
            </g>
        </g>
    </g>
</svg>