<?xml version="1.0" encoding="utf-8"?>
<!-- Generator: Adobe Illustrator 25.4.1, SVG Export Plug-In . SVG Version: 6.00 Build 0)  -->
<svg version="1.1" id="Layer_1" xmlns="http://www.w3.org/2000/svg" xmlns:xlink="http://www.w3.org/1999/xlink" x="0px" y="0px"
	 viewBox="0 0 792 370.4" style="enable-background:new 0 0 792 370.4;" xml:space="preserve">
<style type="text/css">
	.st0{fill:#020202;}
</style>
<g>
	<polygon class="st0" points="179,347.8 179.2,347.9 179.2,347.8 178.7,347.8 	"/>
	<g>
		<g>
			<path class="st0" d="M42.4,252.8h8.4c0.1-12.4,0.3-19.7,0.6-22c0.6-5.2,2.8-9.3,6.5-12.4c3.7-3,9-4.6,15.8-4.6
				c4.9,0,10.5,1.2,16.7,3.5v18.4c-3.4-1-6.2-1.5-8.5-1.5c-2.8,0-4.8,0.6-6.1,1.7c-0.9,0.9-1.4,2.6-1.4,5.3l-0.1,11.6h15.1V273h-15
				v74.6H50.8V273h-8.4V252.8z"/>
			<path class="st0" d="M104.7,252.8h20.7v12c2.2-4.7,5-8.2,8.7-10.7c3.6-2.4,7.6-3.7,11.9-3.7c3,0,6.2,0.8,9.5,2.4l-7.3,20.5
				c-2.8-1.4-5-2.1-6.8-2.1c-3.6,0-6.7,2.3-9.2,6.8s-3.8,13.4-3.8,26.6l0.1,4.6v38.3h-23.7L104.7,252.8L104.7,252.8z"/>
			<path class="st0" d="M255.9,302.5c0-15.6-4.7-28.2-14.1-37.7c-9.4-9.5-21.5-14.3-36.5-14.3c-14.1,0-25.8,4.8-35.1,14.3
				s-14,21.5-14,35.9c0,14.1,4.7,25.8,14,35.2c9.3,9.4,21.5,14,36.3,14c9.6,0,17.9-1.7,24.8-5.1c7-3.4,12.9-8.6,17.9-15.7l-20-9.4
				c-6.4,6.2-14,9.3-22.9,9.3c-7.4,0-13.6-2-18.3-6c-4.8-4-7.7-9.3-8.9-16.1h76.6L255.9,302.5z M180.2,288.5
				c2.7-5.8,5.6-9.8,8.8-12.1c5.1-3.7,10.9-5.5,17.6-5.5c6.2,0,11.6,1.6,16.3,4.9s7.8,7.5,9.4,12.7H180.2z"/>
			<path class="st0" d="M370.2,302.5c0-15.6-4.7-28.2-14.1-37.7s-21.5-14.3-36.5-14.3c-14.1,0-25.8,4.8-35.1,14.3
				c-9.3,9.5-14,21.5-14,35.9c0,14.1,4.7,25.8,14,35.2c9.4,9.4,21.4,14,36.3,14c9.6,0,17.9-1.7,24.8-5.1c7-3.4,13-8.6,18-15.7
				l-20-9.4c-6.4,6.2-14,9.3-22.9,9.3c-7.4,0-13.5-2-18.3-6s-7.7-9.3-8.8-16.1h76.6V302.5z M294.4,288.5c2.7-5.8,5.6-9.8,8.8-12.1
				c5-3.7,10.9-5.5,17.6-5.5c6.2,0,11.6,1.6,16.3,4.9c4.7,3.3,7.8,7.5,9.4,12.7H294.4z"/>
			<path class="st0" d="M459.4,263.3c-4.2-4.3-8.9-7.5-13.9-9.6s-10.4-3.2-16.1-3.2c-12.4,0-22.9,4.7-31.6,14
				c-8.7,9.3-13,21.3-13,35.9c0,14.1,4.5,25.9,13.5,35.3c9,9.5,19.6,14.2,31.9,14.2c5.5,0,10.6-1,15.2-2.9c4.7-1.9,9.4-5.1,14-9.5
				v10.1h23.7V216.2h-23.7V263.3z M452.9,279.9c4.9,5.1,7.4,11.8,7.4,20c0,8.4-2.5,15.2-7.4,20.4c-4.9,5.2-11.2,7.8-18.6,7.8
				c-7.3,0-13.4-2.6-18.3-7.9c-5-5.3-7.4-12-7.4-20.2c0-8.1,2.4-14.8,7.3-19.9c4.9-5.2,11-7.8,18.4-7.8
				C441.8,272.3,448,274.8,452.9,279.9"/>
			<path class="st0" d="M515.6,263.3c-10.8,9.8-16.3,22.2-16.3,36.9c0,13.8,4.8,25.5,14.4,35.2c9.6,9.7,21.2,14.5,34.7,14.5
				c9.2,0,17.6-2.2,25.3-6.6s13.7-10.4,18.1-18.2c4.4-7.8,6.7-16.1,6.7-25.1c0-8.9-2.2-17.1-6.6-24.8c-4.4-7.6-10.5-13.7-18.4-18.2
				s-16.2-6.7-25.2-6.7C536,250.5,525.1,254.8,515.6,263.3 M567.3,280.4c4.8,5.1,7.3,11.7,7.3,19.8c0,8.1-2.5,14.8-7.4,19.9
				c-4.9,5.2-11.1,7.8-18.5,7.8s-13.6-2.5-18.4-7.7c-4.8-5.1-7.3-11.8-7.3-20c0-8,2.5-14.6,7.4-19.7s11-7.7,18.4-7.7
				C556.3,272.7,562.5,275.3,567.3,280.4"/>
			<path class="st0" d="M614.7,252.8h23.7v11.1c4.1-4.5,8.6-7.9,13.6-10.1c5-2.2,10.4-3.3,16.3-3.3c5.9,0,11.3,1.5,16.1,4.4
				c4.8,2.9,8.7,7.2,11.6,12.8c3.8-5.6,8.5-9.9,14-12.8c5.5-2.9,11.5-4.4,18.1-4.4c6.8,0,12.7,1.6,17.9,4.7
				c5.1,3.1,8.8,7.2,11.1,12.3c2.3,5.1,3.4,13.3,3.4,24.6v55.5h-23.7v-47.9c0-10.7-1.4-17.9-4.1-21.7c-2.7-3.8-6.8-5.7-12.2-5.7
				c-4.1,0-7.8,1.2-11.1,3.5s-5.7,5.5-7.3,9.6s-2.4,10.6-2.4,19.6v42.6H676v-45.7c0-8.4-0.6-14.6-1.9-18.4c-1.3-3.8-3.2-6.6-5.7-8.4
				c-2.5-1.9-5.6-2.8-9.2-2.8c-4,0-7.6,1.2-10.9,3.5c-3.3,2.3-5.7,5.6-7.3,9.8c-1.6,4.2-2.4,10.9-2.4,20v42h-23.7v-94.8H614.7z"/>
		</g>
		<g>
			<path class="st0" d="M86.3,180.9l92.1,38.8c2.4-6.4,5.1-12.5,8.2-18.3L86.3,180.9z"/>
			<path class="st0" d="M268.9,133.3c0.3-0.1,0.6-0.1,0.9-0.2l-39.9-98.5l20.6,104.8c5.7-2.5,11.5-4.5,17.6-6L268.9,133.3z"/>
			<path class="st0" d="M245.9,141.5c1-0.5,2.1-1,3.2-1.5l-58.2-89l40.3,99c4.5-3,9-5.8,13.8-8.1L245.9,141.5z"/>
			<path class="st0" d="M224.6,154.8c1.8-1.4,3.6-2.7,5.4-4l-74.3-75.9l58.5,89c3.1-3,6.3-5.8,9.6-8.4L224.6,154.8z"/>
			<path class="st0" d="M205.8,172.8c2.4-2.7,4.8-5.4,7.4-7.9l-87.3-59.6l73.8,75.1c1.7-2.3,3.5-4.5,5.3-6.7L205.8,172.8z"/>
			<path class="st0" d="M385.1,180.3l73.7-74.9l-87.1,59.5c-0.3-0.4-0.7-0.7-1.1-1.1L429,74.9l-74.2,75.8c-0.4-0.3-0.8-0.5-1.2-0.8
				L393.9,51l-58.2,88.9c-0.4-0.2-0.9-0.4-1.4-0.6l20.5-104.7L314.9,133c-0.5-0.1-1.1-0.2-1.6-0.4l0.1-106.5l-20.3,104.3H293h-0.2
				c7.8,0.1,15.5,1.1,22.9,2.8l0.9,0.2c7.6,1.9,15,4.6,22.1,8l0.9,0.4c7.2,3.5,14,7.9,20.4,12.9l0.8,0.7
				c6.4,5.1,12.4,10.9,17.9,17.3l0.8,0.9c5.5,6.4,10.4,13.5,14.8,21l0.7,1.3c0.6,1,1.2,2.1,1.7,3.1l0.2-0.1l85.1-57.8"/>
			<path class="st0" d="M198.6,181.8l-96.2-40.7l85.3,57.9c0.6-1,1.1-2.1,1.7-3.1l0.7-1.3"/>
			<path class="st0" d="M271.2,26.2l0.1,106.5c6.6-1.4,13.3-2.1,20.2-2.2L271.2,26.2z"/>
			<path class="st0" d="M498.4,180.9l-100.1,20.4l-0.2,0.1c3.1,5.9,5.9,12.1,8.3,18.6h-1v0.1l0.2-0.1h1c0-0.1-0.1-0.2-0.1-0.3
				L498.4,180.9z"/>
		</g>
	</g>
</g>
</svg>
